<svg xmlns="http://www.w3.org/2000/svg" viewBox="0 0 120 41.1"><path fill="#FFF" d="M41 10.2h7.2v2.1h-4.7v8h2.8c1.1 0 2.1 1.1 2.1 2.5v9.1c0 1.3-1 2.5-2.1 2.5H41V10.2zm4.4 22.4c.2 0 .5-.3.5-.5v-9.7c0-.2-.3-.5-.5-.5h-1.9v10.6h1.9zm5.7-22.4h2.5v14.9l2.6-14.9h2.5v24.1h-2.5V19.1l-2.6 15.2h-2.5V10.2zm10.3 18.6h2.5v3.4c0 .2.2.4.4.4h1.5c.2 0 .4-.2.4-.4v-9.4c0-.2-.1-.4-.3-.4h-3.3v-2.1h3.3c.2 0 .3-.2.3-.4v-7.5c0-.2-.2-.4-.4-.4h-1.5c-.2 0-.4.2-.4.4v3.4h-2.5v-3.3c0-1.1 1.1-2.2 2.2-2.2h3.1c1 0 2 1.1 2 2.2V20c0 .5-.5 1.1-1.2 1.4.7.3 1.2.9 1.2 1.4v9.4c0 1.1-1 2.2-2 2.2h-3.1c-1.1 0-2.2-1.1-2.2-2.2v-3.4zm10-18.6h2.5v10h2.4v-10h2.5v24.1h-2.5V22h-2.4v12.3h-2.5V10.2zm10.1 0h6.4v2.1H84v7.8h3.2v2.1H84v10.1h3.9v2.1h-6.4V10.2zm9 2.4c0-1.2 1.1-2.4 2.3-2.4h2.9c1.1 0 2.2 1.1 2.2 2.4v6.9h-2.5v-7.2c0-.2-.2-.5-.5-.5h-1.4c-.3 0-.5.2-.5.5v19.8c0 .2.2.5.5.5H95c.2 0 .5-.2.5-.5V25H98v6.9c0 1.2-1 2.4-2.2 2.4h-2.9c-1.2 0-2.3-1.1-2.3-2.4V12.6z"/><path fill="#B7A088" d="M0 10.2h5.3c1.2 0 2.2 1.2 2.2 2.4v7.2c0 .5-.5 1.2-1.1 1.5.7.3 1.1.9 1.1 1.5v9.5c0 1.2-1.1 2.4-2.2 2.4H0V10.2zm4.5 10.2c.3 0 .5-.2.5-.4v-7.5c0-.2-.2-.5-.5-.5h-2v8.5h2zm0 12.6c.3 0 .5-.3.5-.5v-9.8c0-.2-.2-.5-.5-.5h-2V33h2zm8.1-22.8H16l2.7 24.5h-2.3l-.5-4.7h-3.2l-.4 4.7H9.9l2.7-24.5zM15.7 28l-1.3-13.8h-.1L12.9 28h2.8zM21 10.2h2.5v22.5H26V10.2h2.5v22.5H31V10.2h2.5v24.5H21V10.2zm85.9 16.5l.7.3c-.2.9-.7 2-1.1 2.9-1.2 2.2-2.4 3.4-2.4 3.4l-.1.1.1.2s.8 1.9.8 3.6c0 .7-.1 1.6-.2 2.2-.1.1-.3.2-.3.4-.1.2-.1.5 0 .7H0v.6h105.1c.1 0 .2 0 .4-.1s.4-.3.5-.5c.1-.2.1-.4.1-.5.3-.5.9-1.2 1.4-1.7 1.2-1.2 3.1-2 3.1-2l.2-.1V36s0-1.7.7-4.1c.3-1 .7-2 1.2-2.8l.7.3.2-.5-6.6-2.7-.1.5zm-1.7 13.6s-.1 0 0 0c-.1 0-.1 0-.1-.1v-.1l.1-.1c0 .1.1.2 0 .3 0-.1 0 0 0 0zm7-11.4c-.5.8-1 1.9-1.3 2.9-.6 2.1-.7 3.6-.8 4.1-.5.2-2 .9-3.1 2-.5.5-1 1.1-1.3 1.5l-.1-.1 1.6-3.8h.2c.5 0 .9-.3 1.1-.7.2-.5 0-1.1-.4-1.4l2.2-5.3 1.9.8zm-5 5.7v-.3c0-.1.1-.1.2-.2h.2c.2.1.3.3.2.4-.1.2-.3.3-.4.2-.1 0-.2-.1-.2-.1zm2.7-6.6l-2.2 5.3c-.2 0-.4 0-.7.1-.3.1-.5.3-.6.6-.1.3-.1.6 0 .9.1.2.2.4.4.5l-1.6 3.8h-.1c.1-.6.2-1.3.2-2 0-1.5-.6-3.1-.8-3.6.3-.4 1.3-1.5 2.4-3.4.5-.9.9-2 1.2-2.9l1.8.7zm8-27.4l-.2-.6-3.3 7.9c-3.7 3.7-4.6 7.6-4.5 10.8l-2.7 6.5-.6-.3-.2.5.6.3.2.1 7.4 3.1.2-.5-.8-.3c-.2-.3-1.6-2-2.6-4.5 2.5-1.7 5.6-4.4 7.3-8.3 1.9-4.3 1.7-9.3-.8-14.7zm-4.1 8.7l-3.4 8.2c.1-2.9 1.3-5.7 3.4-8.2zM110 19.9c.1.7.2 1.4.4 2 .1.5.3 1 .5 1.5-1.3.8-2.4 1.4-3 1.6l2.1-5.1zm3.2 7.9l-5.2-2.2c.6-.3 1.8-.8 3.2-1.7.6 1.7 1.4 3.1 2 3.9zm5.1-12.7c-1.6 3.8-4.5 6.4-7 8-.2-.4-.3-.9-.4-1.4-.3-1-.4-2-.5-2.9l7.3-17.5c2.1 5.1 2.3 9.7.6 13.8z"/></svg>