<svg xmlns="http://www.w3.org/2000/svg" viewBox="0 0 80 70.1"><path fill="#FFF" d="M.1 44.9H6v1.7H2.2v6.5h2.3c.9 0 1.7.9 1.7 2v7.4c0 1.1-.8 2-1.7 2H.1V44.9zm3.6 18.3c.2 0 .4-.2.4-.4v-7.9c0-.2-.2-.4-.4-.4H2.2v8.7h1.5zm4.6-18.3h2v12.2l2.1-12.2h2v19.7h-2V52.1l-2.1 12.4h-2V44.9zm8.4 15.2h2v2.8c0 .2.1.3.3.3h1.2c.2 0 .3-.2.3-.3v-7.7c0-.1-.1-.3-.3-.3h-2.7v-1.7h2.7c.1 0 .3-.2.3-.3v-6.1c0-.2-.2-.3-.3-.3H19c-.2 0-.3.2-.3.3v2.8h-2v-2.7c0-.9.9-1.8 1.8-1.8h2.6c.9 0 1.6.9 1.6 1.8V53c0 .4-.4.9-1 1.1.6.2 1 .7 1 1.1v7.7c0 .9-.8 1.8-1.6 1.8h-2.6c-.9 0-1.8-.9-1.8-1.8v-2.8zm8.2-15.2h2v8.2h2v-8.2h2v19.7h-2V54.5h-2v10.1h-2V44.9zm8.2 0h5.2v1.7h-3.2V53h2.6v1.7h-2.6v8.2h3.2v1.7h-5.2V44.9zm7.4 2c0-1 .9-2 1.9-2h2.3c.9 0 1.8.9 1.8 2v5.6h-2v-5.9c0-.2-.2-.4-.4-.4h-1.2c-.2 0-.4.2-.4.4v16.2c0 .2.2.4.4.4h1.2c.2 0 .4-.2.4-.4V57h2v5.6c0 1-.9 2-1.8 2h-2.3c-1 0-1.9-.9-1.9-2V46.9z"/><path fill="#B7A088" d="M46.6 41H29.3V6.8h3.5v31.3h3.4V6.8h3.5v31.3h3.4V6.8h3.5V41zM17 41h-3.3l3.8-34.1h4.7L26 41h-3.2l-.7-6.5h-4.4L17 41zm.9-9.4h3.9L20 12.4h-.2l-1.9 19.2zM7.4 41H0V6.8h7.4c1.6 0 3.1 1.6 3.1 3.3v10c0 .8-.7 1.6-1.6 2.1.9.5 1.6 1.3 1.6 2.1v13.3c0 1.8-1.5 3.4-3.1 3.4zm-.5-16.8c0-.3-.3-.7-.7-.7H3.5v15h2.7c.3 0 .7-.4.7-.7V24.2zm0-14.3c0-.3-.3-.7-.7-.7H3.5V21h2.7c.3 0 .7-.3.7-.7V9.9zM78 26.1c-2.8 6.7-8.1 11.3-12.4 14.1 1.7 4.3 4 7.2 4.4 7.7l1.3.5-.3.8-12.7-5.3-.4-.2-1.1-.4.3-.8 1.1.4 4.6-11.2c-.2-5.5 1.3-12.1 7.6-18.4L76.1 0l.4.9c4.1 9.3 4.6 17.8 1.5 25.2zm-14.3 3.8L69.5 16c-3.7 4.2-5.6 8.9-5.8 13.9zm-4.4 12.8c1.1-.5 3-1.4 5.2-2.8-.3-.8-.6-1.7-.8-2.6-.3-1.1-.5-2.2-.7-3.5l-3.7 8.9zm5.5-2c-2.4 1.5-4.3 2.4-5.4 2.9l8.9 3.7c-.9-1.3-2.3-3.6-3.5-6.6zM76.1 2.3L63.7 32.1c.1 1.6.4 3.3.8 5 .2.8.5 1.6.7 2.3 4.2-2.8 9.2-7.2 11.9-13.6 3-7 2.6-14.9-1-23.5zM58 44.7l11.2 4.6-.3.8-1.2-.5c-.8 1.4-1.6 3.2-2.1 4.9-1.2 4.1-1.3 7-1.3 7v.3l-.4.2s-3.2 1.3-5.3 3.3c-.9.9-1.8 2.1-2.4 2.9.1.3 0 .6-.1.9-.2.4-.5.7-.9.9-.2.1-.4.1-.6.1H.1v-1h53.1c-.2-.4-.2-.8 0-1.2.1-.3.3-.5.6-.7.2-1 .4-2.4.4-3.7 0-2.9-1.3-6.1-1.4-6.1l-.1-.3.2-.2s2-2.1 4.1-5.9c.8-1.5 1.6-3.4 1.9-4.9l-1.2-.5.3-.9zm-3.2 23.8c0-.1 0-.2-.1-.2h-.1c-.1 0-.1 0-.2.1v.1s0 .1.1.1c.2.1.2 0 .3-.1 0 .1 0 .1 0 0zm8.8-20.4l-3.7 9c.8.5 1.1 1.5.7 2.4-.3.8-1.1 1.2-1.9 1.2h-.3l-2.7 6.5.1.1c.6-.8 1.4-1.8 2.2-2.6 1.9-1.8 4.5-3.1 5.3-3.4 0-.8.3-3.5 1.3-7 .5-1.7 1.3-3.5 2.1-5l-3.1-1.2zm-5.4 10.8c.1.1.2.3.3.3.3.1.6 0 .8-.3.1-.3 0-.6-.3-.8h-.4c-.1.1-.3.2-.3.3-.2.2-.2.4-.1.5zm1.5-12.5c-.4 1.6-1.2 3.5-2 5-1.8 3.2-3.5 5.2-4 5.8.3.8 1.3 3.6 1.3 6.2 0 1.1-.1 2.4-.3 3.4h.2l2.7-6.5c-.3-.2-.6-.5-.7-.9-.2-.5-.2-1 0-1.5s.6-.9 1.1-1.1c.4-.1.7-.2 1.1-.1l3.7-9-3.1-1.3z"/></svg>