<?xml version="1.0" encoding="utf-8"?>
<!-- Generator: Adobe Illustrator 21.1.0, SVG Export Plug-In . SVG Version: 6.00 Build 0)  -->
<svg version="1.1" id="Слой_1" xmlns="http://www.w3.org/2000/svg" xmlns:xlink="http://www.w3.org/1999/xlink" x="0px" y="0px"
	 viewBox="0 0 173.8 214.9" enable-background="new 0 0 173.8 214.9" xml:space="preserve">
<rect fill="#404B57" width="173.8" height="154.9"/>
<linearGradient id="SVGID_1_" gradientUnits="userSpaceOnUse" x1="86.8833" y1="214.9102" x2="86.8833" y2="154.9102">
	<stop  offset="0" style="stop-color:#404B57"/>
	<stop  offset="1" style="stop-color:#333C45"/>
</linearGradient>
<path fill="url(#SVGID_1_)" d="M86.9,154.9h-35c2,3,35,60,35,60s33-57,35-60H86.9z"/>
<g>
	<g>
		<path fill="#FFFFFF" d="M10.1,96.4h11.3v3.2H14v12.5h4.4c1.7,0,3.3,1.8,3.3,3.9v14.3c0,2.1-1.6,3.9-3.3,3.9h-8.3V96.4z M17,131.6
			c0.4,0,0.8-0.4,0.8-0.7v-15.2c0-0.3-0.4-0.7-0.8-0.7h-3v16.7H17z"/>
		<path fill="#FFFFFF" d="M25.9,96.4h3.9v23.4L34,96.4h3.9v37.8H34v-23.9l-4.1,23.9h-3.9V96.4z"/>
		<path fill="#FFFFFF" d="M42.1,125.6H46v5.3c0,0.3,0.3,0.6,0.6,0.6H49c0.3,0,0.6-0.3,0.6-0.6v-14.8c0-0.3-0.2-0.6-0.5-0.6h-5.2
			v-3.3h5.2c0.3-0.1,0.5-0.3,0.5-0.6V99.8c0-0.3-0.3-0.6-0.6-0.6h-2.4c-0.4,0-0.6,0.3-0.6,0.6v5.3h-3.9v-5.2c0-1.8,1.7-3.5,3.4-3.5
			h4.9c1.6,0,3.2,1.7,3.2,3.5v11.7c0,0.8-0.7,1.8-1.9,2.2c1.1,0.4,1.9,1.4,1.9,2.2v14.8c0,1.8-1.5,3.5-3.2,3.5h-4.9
			c-1.7,0-3.4-1.7-3.4-3.5V125.6z"/>
		<path fill="#FFFFFF" d="M57.8,96.4h3.9v15.8h3.8V96.4h3.9v37.8h-3.9v-19.4h-3.8v19.4h-3.9V96.4z"/>
		<path fill="#FFFFFF" d="M73.6,96.4h10v3.2h-6.1v12.3h5v3.3h-5V131h6.1v3.2h-10V96.4z"/>
		<path fill="#FFFFFF" d="M87.9,100.2c0-2,1.8-3.8,3.7-3.8H96c1.8,0,3.4,1.8,3.4,3.8V111h-3.9V99.7c0-0.4-0.4-0.7-0.7-0.7h-2.3
			c-0.4,0-0.7,0.4-0.7,0.7v31.1c0,0.4,0.3,0.7,0.7,0.7h2.3c0.4,0,0.7-0.4,0.7-0.7v-11.1h3.9v10.8c0,2-1.6,3.8-3.4,3.8h-4.5
			c-1.9,0-3.7-1.8-3.7-3.8V100.2z"/>
	</g>
	<path fill="#B7A088" d="M9.9,23.2H24c3.1,0,6,3.1,6,6.4v19.3c0,1.5-1.3,3.1-3,4c1.7,0.9,3,2.5,3,4v25.6c0,3.3-2.8,6.4-6,6.4H9.9
		V23.2z M21.9,50.5c0.6,0,1.3-0.6,1.3-1.3V29.1c0-0.6-0.6-1.3-1.3-1.3h-5.2v22.7H21.9z M21.9,84.2c0.6,0,1.3-0.7,1.3-1.3V56.5
		c0-0.6-0.6-1.3-1.3-1.3h-5.2v29H21.9z M43.6,23.2h9l7.3,65.7h-6.3l-1.3-12.5h-8.5l-1.2,12.5h-6.3L43.6,23.2z M51.9,70.9l-3.6-37
		h-0.4l-3.6,37H51.9z M66.2,23.1H73v60.3h6.5V23.1h6.8v60.3h6.5V23.1h6.7v65.8H66.2V23.1z"/>
	<path fill="#B7A088" d="M120.8,97.7l2.4,1c-0.7,3-2.1,6.6-3.7,9.5c-4,7.2-7.8,11.2-7.9,11.3l-0.4,0.4l0.2,0.5
		c0,0.1,2.5,6.1,2.6,11.8c0,2.4-0.4,5.3-0.7,7.1c-0.5,0.3-0.9,0.8-1.1,1.4c-0.3,0.8-0.3,1.6,0,2.4c0.3,0.8,0.9,1.4,1.7,1.7
		c0.4,0.2,0.8,0.2,1.2,0.2c0.4,0,0.8-0.1,1.2-0.2c0.8-0.3,1.4-0.9,1.7-1.7h0c0.2-0.6,0.3-1.2,0.2-1.7c1.1-1.5,2.8-3.8,4.6-5.5
		c4-3.9,10.1-6.4,10.2-6.4l0.5-0.2l0-0.6c0-0.1,0.2-5.7,2.4-13.5c0.9-3.2,2.5-6.7,4.1-9.3l2.4,1l0.7-1.6l-21.5-8.9L120.8,97.7z
		 M115.4,141.9c0,0.1-0.1,0.2-0.2,0.2c-0.1,0-0.2,0-0.3,0c-0.1,0-0.2-0.1-0.2-0.2c0-0.1,0-0.2,0-0.3c0.1-0.1,0.2-0.2,0.3-0.2
		c0,0,0.1,0,0.1,0C115.4,141.5,115.5,141.7,115.4,141.9z M138.3,105c-1.6,2.8-3.2,6.3-4.1,9.5c-1.9,6.8-2.4,11.8-2.5,13.4
		c-1.6,0.7-6.6,3.1-10.2,6.6c-1.6,1.5-3.1,3.5-4.3,5.1c-0.1-0.1-0.2-0.1-0.2-0.2l5.2-12.6c0.2,0,0.4,0.1,0.7,0.1
		c1.5,0,3-0.9,3.6-2.4l0,0c0.7-1.7,0.1-3.6-1.4-4.7l7.2-17.3L138.3,105z M121.9,122.5c0.1-0.3,0.3-0.5,0.6-0.6
		c0.1-0.1,0.3-0.1,0.4-0.1c0.1,0,0.3,0,0.4,0.1c0.6,0.2,0.8,0.9,0.6,1.5c-0.2,0.6-0.9,0.8-1.5,0.6c-0.3-0.1-0.5-0.3-0.6-0.6
		C121.8,123.1,121.8,122.8,121.9,122.5z M130.8,101.8l-7.2,17.3c-0.7-0.1-1.5-0.1-2.2,0.2c-1,0.4-1.7,1.1-2.1,2.1c-0.4,1-0.4,2,0,3
		c0.3,0.7,0.8,1.3,1.4,1.7l-5.2,12.6c-0.1,0-0.2,0-0.3,0c0.3-1.9,0.6-4.4,0.6-6.6c-0.1-5-1.9-10.2-2.5-11.9
		c1.1-1.2,4.4-5.1,7.8-11.2c1.6-2.9,3.1-6.5,3.8-9.6L130.8,101.8z M157.1,11.8l-0.8-1.8l-10.8,26c-12.1,12.2-15.2,24.9-14.7,35.5
		L121.9,93l-2-0.9l-0.7,1.6l2,0.9l0.8,0.3l24.4,10.1l0.7-1.6l-2.5-1c-0.8-1-5.2-6.6-8.4-14.9c8.3-5.5,18.5-14.4,23.9-27.2
		C166,45.9,165,29.6,157.1,11.8z M143.6,40.6l-11.1,26.8C132.8,57.8,136.6,48.9,143.6,40.6z M131.1,75.2c0.3,2.4,0.8,4.6,1.3,6.7
		c0.5,1.7,1,3.4,1.6,4.9c-4.2,2.7-7.9,4.4-9.9,5.4L131.1,75.2z M141.4,101.1l-17.2-7.1c2-0.9,5.8-2.7,10.4-5.5
		C136.9,94.1,139.6,98.5,141.4,101.1z M158.4,59.6c-5.2,12.3-14.9,20.9-23,26.3c-0.5-1.4-1-2.9-1.4-4.5c-0.9-3.2-1.4-6.4-1.6-9.5
		l23.9-57.5C163.3,31,164,46.2,158.4,59.6z"/>
	<g>
		<rect x="10.1" y="143" fill="#B7A088" width="105" height="1.9"/>
	</g>
</g>
</svg>
