<svg xmlns="http://www.w3.org/2000/svg" viewBox="0 0 18 18"><path fill="#B7A088" d="M14.8 18c-.2 0-.4 0-.6-.1-.5-.2-1.1-.4-1.8-.8-4.9-2.5-9-6.6-11.5-11.5C.5 4.9.3 4.3.1 3.8c-.2-.7 0-1.4.5-1.9L2.5.3c.4-.2.7-.3 1.1-.3.4 0 .7.2.9.5l2.3 3.1c.4.5.4 1.2.1 1.8L6.1 7c-.1.1-.1.4 0 .5 1.2 1.6 2.7 3.1 4.3 4.3l.1.1c.1.1.3.1.4 0l1.6-.8c.6-.3 1.3-.3 1.8.1l3.1 2.3c.3.2.5.5.5.9s-.1.7-.3 1L16 17.3c-.2.5-.7.7-1.2.7zM3.4.9c-.1 0-.2.1-.2.1l-2 1.6c-.2.2-.3.6-.2.9.2.5.4 1 .7 1.7 2.4 4.7 6.4 8.7 11.1 11.1.6.3 1.2.6 1.7.7.3.1.7 0 .9-.2l1.6-1.9c.1-.1.1-.2.1-.3 0-.1-.1-.2-.1-.2L13.8 12c-.2-.2-.6-.2-.8-.1l-1.6.8c-.4.3-1 .3-1.4 0l-.1-.1c-1.7-1.3-3.2-2.8-4.5-4.5-.3-.4-.4-1.1-.1-1.6L6 5c.2-.2.1-.5 0-.8L3.7 1.1c0-.1-.1-.1-.3-.2z"/></svg>