<svg xmlns="http://www.w3.org/2000/svg" viewBox="0 0 51.9 46.9"><g fill="#B7A088"><path d="M3 34.4v-3.8c3 1.3 7.7 1.8 10.8 1.9-.2-1-.3-2-.3-3-6.1-.4-9.9-1.6-10.5-2.4v-3.8c3.1 1.3 7.8 1.8 10.9 1.9.2-1 .5-2 .8-3C7.9 22 3.6 20.6 3 19.8V16c4.5 1.9 12.5 2 13.7 2h.1c.7-1.1 1.5-2.1 2.4-3.1-.8 0-1.7.1-2.6.1-8 0-13-1.6-13.7-2.5V8.7c4.5 1.9 12.5 2 13.7 2 1.7 0 16.7-.2 16.7-5.4S18.4 0 16.7 0 0 .2 0 5.4v29.2c0 5 14 5.3 16.5 5.4-.6-1-1.1-2-1.5-3-7-.4-11.4-1.8-12-2.6zM16.7 3c7.6 0 12.5 1.4 13.6 2.4-1.1.9-6 2.4-13.6 2.4S4.2 6.3 3.1 5.4c1.1-1 6-2.4 13.6-2.4z"/><path d="M34.2 11.5c-9.7 0-17.7 7.9-17.7 17.7s7.9 17.7 17.7 17.7S51.9 39 51.9 29.2s-8-17.7-17.7-17.7zm0 32.4c-8.1 0-14.7-6.6-14.7-14.7s6.6-14.7 14.7-14.7 14.7 6.6 14.7 14.7-6.6 14.7-14.7 14.7z"/><path d="M35.9 18.9h-6.5v10h-2v3h2v1.6h-2v3h2v3.4h3v-3.4h3.5v-3h-3.5v-1.6h3.5c3.6 0 6.5-2.9 6.5-6.5s-2.9-6.5-6.5-6.5zm0 10h-3.5v-7h3.5c1.9 0 3.5 1.6 3.5 3.5s-1.6 3.5-3.5 3.5z"/></g></svg>