<svg xmlns="http://www.w3.org/2000/svg" viewBox="0 0 58.5 56.1"><g fill="#B7A088"><path d="M54 10.6H25.1c-2.5 0-4.5 2-4.5 4.5v20.5c0 2.5 2 4.5 4.5 4.5h11.3l13.3 16.1V40.1H54c2.5 0 4.5-2 4.5-4.5V15.1c0-2.5-2-4.5-4.5-4.5zm1.5 25c0 .8-.7 1.5-1.5 1.5h-7.3v10.7l-8.9-10.7H25.1c-.8 0-1.5-.7-1.5-1.5V15.1c0-.8.7-1.5 1.5-1.5H54c.8 0 1.5.7 1.5 1.5v20.5z"/><path d="M10.3 30.3v-8.4H4.5c-.8 0-1.5-.7-1.5-1.5V4.5C3 3.7 3.7 3 4.5 3h22.8c.8 0 1.5.7 1.5 1.5v2.7h3V4.5c0-2.5-2-4.5-4.5-4.5H4.5C2 0 0 2 0 4.5v15.9c0 2.5 2 4.5 4.5 4.5h2.8v13.7L18.5 25v-3.2h-1.3l-6.9 8.5z"/></g></svg>