<svg xmlns="http://www.w3.org/2000/svg" viewBox="0 0 51 64.4"><g fill="#B7A088"><path d="M25.5 37.7c7.9 0 14.2-6.4 14.2-14.2S33.3 9.2 25.5 9.2v3c6.2 0 11.2 5 11.2 11.2s-5 11.2-11.2 11.2c-6.2 0-11.2-5-11.2-11.2h-3c-.1 7.9 6.3 14.3 14.2 14.3z"/><path d="M32.8 23.7l-2-2.3-4.4 3.9-10.5-11.8-2.3 2 12.6 14.1"/><path d="M42.7 39.3c3.8-4.2 6.2-9.7 6.2-15.8C48.9 10.5 38.4 0 25.5 0S2.1 10.5 2.1 23.4c0 6.1 2.3 11.7 6.2 15.8L0 55.5l11.2-.4 6.4 9.4 8.9-17.6c5.3-.2 10.1-2.2 13.9-5.4L46 52.3l-7.8-.3-4.5 6.5-5.2-10-1.5 3.4 6.4 12.5 6.4-9.4 11.2.5-8.3-16.2zM25.5 3c11.3 0 20.4 9.2 20.4 20.4s-9.2 20.4-20.4 20.4S5.1 34.7 5.1 23.4 14.2 3 25.5 3zm-8.3 55.6L12.7 52l-7.7.3 5.5-10.9c3.5 2.9 7.9 4.8 12.7 5.3l-6 11.9z"/></g></svg>