<svg xmlns="http://www.w3.org/2000/svg" viewBox="0 0 73.3 47.7"><g fill="#A48A7A"><path d="M70.6 38V23.6l-2 .9V38M68 39.3l-1.1 8.4h5.7l-1.4-8.4"/><path d="M73.3 20.6L36.6 0 0 20.6l15.8 7.8 3.3 1.6v-6.5c11.4-3.5 23.7-3.5 35.1 0v13.1c-9.6-2.7-18.8-3.6-27.7-1.5-7.1 1.7-11.9 4.1-11.9 4.1s3 2.6 9 4.3C28 44.7 31.9 45 36.7 45c5.1 0 11.2-1 16.2-2.3 0 0-2.7-.6-5.1-1.2-1.5-.4-3.3-.6-4.2-.8-6.9.9-12.2.6-19.1-.9 8.6-1.9 16.7-2.1 25.3-.2 1.9.4 8.4 2 8.4 2v-21l-1.4-.5c-13-4.3-27.3-4.3-40.4 0l-1.4.5v.8l-2.3-1.1L36.6 6.9l23.8 13.4V27l12.9-6.4z"/></g></svg>