<svg xmlns="http://www.w3.org/2000/svg" viewBox="0 0 50.6 53.5"><path fill="#DADADA" d="M1.1 53.5C1 53 0 42.4 0 40.5c0-4.8 2.4-7.9 7.6-9.8 2.2-.8 3.9-1.3 6.1-1.7l1 3.2c-2.1.4-3.9.9-5.9 1.7-3.9 1.5-5.5 3.4-5.5 6.7 0 1.5.8 9.7 1.1 12.7l-3.3.2zm49.5-13c0-4.8-2.4-7.9-7.6-9.8-3.9-1.5-10.3-2.7-10.5-2.7l-1.2-.2-.8 1.6c-1.3 2.6-3.1 5-5.2 7-2.1-2-3.8-4.4-5.2-7l-.6-1.5-3.2.5s.8 1.8 1 2.5c1.4 3.3 3.6 6 6.2 8.4l1.8 1.7 1.8-1.7c2.4-2.3 4.4-4.9 6-7.8 2 .4 6.1 1.3 8.8 2.3 3.9 1.5 5.5 3.4 5.5 6.7 0 1.5-.8 9.7-1.1 12.7l3.3.3c0-.5 1-11.1 1-13zm-12-27.2c0-4.2-2-8.2-5.4-10.7l-2 2.7c2.6 1.9 4.1 4.8 4.1 8 0 5.5-4.5 10-10 10s-10-4.5-10-10 4.5-10 10-10c1.2 0 2.4.2 3.5.6L30.6 1c-1.5-.6-3.7-1-5.3-1C18 0 12 6 12 13.3s6 13.3 13.3 13.3 13.3-5.9 13.3-13.3z"/></svg>