<svg xmlns="http://www.w3.org/2000/svg" viewBox="0 0 64.5 64"><path fill="#A48A7A" d="M64.5 32c0-14.4-9.6-27.1-23.3-31.2-.8-.2-1.7-.6-3.5-.9V5c12.6 2.7 21.7 14 21.7 26.9 0 1.2-.1 2.6-.3 4l4.7 2.1c.5-1.9.7-4.3.7-6zM55.8 46.7C50.7 55.1 41.8 60 32 60 16.6 60 4 47.5 4 32 4 17.3 15.5 5.1 30 4.1v25.4h4V0h-2.6L30 .1C13.3 1.1 0 15.1 0 32c0 17.6 14.4 32 32 32 11.2 0 21.4-5.7 27.2-15.2.8-1.3 2.3-4.4 3.3-7l-3.6-1.5c-.8 1.9-2.4 5.3-3.1 6.4z"/><path fill="#A48A7A" d="M34.117 35.718l1.983-4.59 14.32 6.187-1.982 4.59z"/></svg>